<svg xmlns="http://www.w3.org/2000/svg" width="1400" height="760">
<rect width="1400" height="760" fill="#ffffff"/>
<text x="700.0" y="44" text-anchor="middle" font-size="28" font-family="Arial">Figure 4-1  Accuracy Metrics Comparison</text>
<line x1="120" y1="590" x2="1320" y2="590" stroke="#111"/>
<line x1="120" y1="90" x2="120" y2="590" stroke="#111"/>
<line x1="120" y1="590.00" x2="1320" y2="590.00" stroke="#e5e7eb"/>
<text x="108" y="594.00" text-anchor="end" font-size="12" font-family="Arial">0.0000</text>
<line x1="120" y1="490.00" x2="1320" y2="490.00" stroke="#e5e7eb"/>
<text x="108" y="494.00" text-anchor="end" font-size="12" font-family="Arial">0.0150</text>
<line x1="120" y1="390.00" x2="1320" y2="390.00" stroke="#e5e7eb"/>
<text x="108" y="394.00" text-anchor="end" font-size="12" font-family="Arial">0.0300</text>
<line x1="120" y1="290.00" x2="1320" y2="290.00" stroke="#e5e7eb"/>
<text x="108" y="294.00" text-anchor="end" font-size="12" font-family="Arial">0.0450</text>
<line x1="120" y1="190.00" x2="1320" y2="190.00" stroke="#e5e7eb"/>
<text x="108" y="194.00" text-anchor="end" font-size="12" font-family="Arial">0.0600</text>
<line x1="120" y1="90.00" x2="1320" y2="90.00" stroke="#e5e7eb"/>
<text x="108" y="94.00" text-anchor="end" font-size="12" font-family="Arial">0.0750</text>
<rect x="136.36" y="586.00" width="54.55" height="4.00" fill="#5470C6"/>
<rect x="190.91" y="578.05" width="54.55" height="11.95" fill="#91CC75"/>
<rect x="245.45" y="579.79" width="54.55" height="10.21" fill="#FAC858"/>
<text x="201.82" y="624.00" text-anchor="middle" font-size="13" font-family="Arial" transform="rotate(25 201.82,624.00)">PopRec</text>
<rect x="376.36" y="583.00" width="54.55" height="7.00" fill="#5470C6"/>
<rect x="430.91" y="571.83" width="54.55" height="18.17" fill="#91CC75"/>
<rect x="485.45" y="573.95" width="54.55" height="16.05" fill="#FAC858"/>
<text x="441.82" y="624.00" text-anchor="middle" font-size="13" font-family="Arial" transform="rotate(25 441.82,624.00)">Content-Based</text>
<rect x="616.36" y="581.33" width="54.55" height="8.67" fill="#5470C6"/>
<rect x="670.91" y="566.15" width="54.55" height="23.85" fill="#91CC75"/>
<rect x="725.45" y="568.61" width="54.55" height="21.39" fill="#FAC858"/>
<text x="681.82" y="624.00" text-anchor="middle" font-size="13" font-family="Arial" transform="rotate(25 681.82,624.00)">Hybrid</text>
<rect x="856.36" y="529.33" width="54.55" height="60.67" fill="#5470C6"/>
<rect x="910.91" y="314.04" width="54.55" height="275.96" fill="#91CC75"/>
<rect x="965.45" y="430.05" width="54.55" height="159.95" fill="#FAC858"/>
<text x="921.82" y="624.00" text-anchor="middle" font-size="13" font-family="Arial" transform="rotate(25 921.82,624.00)">LightGCN</text>
<rect x="1096.36" y="523.33" width="54.55" height="66.67" fill="#5470C6"/>
<rect x="1150.91" y="90.00" width="54.55" height="500.00" fill="#91CC75"/>
<rect x="1205.45" y="338.10" width="54.55" height="251.90" fill="#FAC858"/>
<text x="1161.82" y="624.00" text-anchor="middle" font-size="13" font-family="Arial" transform="rotate(25 1161.82,624.00)">Reading
Concierge</text>
<rect x="1020" y="98" width="18" height="10" fill="#5470C6"/>
<text x="1046" y="108" font-size="13" font-family="Arial">Precision@10</text>
<rect x="1020" y="120" width="18" height="10" fill="#91CC75"/>
<text x="1046" y="130" font-size="13" font-family="Arial">Recall@10</text>
<rect x="1020" y="142" width="18" height="10" fill="#FAC858"/>
<text x="1046" y="152" font-size="13" font-family="Arial">NDCG@10</text>
</svg>