<svg xmlns="http://www.w3.org/2000/svg" width="1400" height="760">
<rect width="1400" height="760" fill="#ffffff"/>
<text x="700.0" y="44" text-anchor="middle" font-size="28" font-family="Arial">Figure 4-2  Ablation Study Accuracy Comparison</text>
<line x1="120" y1="590" x2="1320" y2="590" stroke="#111"/>
<line x1="120" y1="90" x2="120" y2="590" stroke="#111"/>
<line x1="120" y1="590.00" x2="1320" y2="590.00" stroke="#e5e7eb"/>
<text x="108" y="594.00" text-anchor="end" font-size="12" font-family="Arial">0.0000</text>
<line x1="120" y1="490.00" x2="1320" y2="490.00" stroke="#e5e7eb"/>
<text x="108" y="494.00" text-anchor="end" font-size="12" font-family="Arial">0.0006</text>
<line x1="120" y1="390.00" x2="1320" y2="390.00" stroke="#e5e7eb"/>
<text x="108" y="394.00" text-anchor="end" font-size="12" font-family="Arial">0.0012</text>
<line x1="120" y1="290.00" x2="1320" y2="290.00" stroke="#e5e7eb"/>
<text x="108" y="294.00" text-anchor="end" font-size="12" font-family="Arial">0.0018</text>
<line x1="120" y1="190.00" x2="1320" y2="190.00" stroke="#e5e7eb"/>
<text x="108" y="194.00" text-anchor="end" font-size="12" font-family="Arial">0.0024</text>
<line x1="120" y1="90.00" x2="1320" y2="90.00" stroke="#e5e7eb"/>
<text x="108" y="94.00" text-anchor="end" font-size="12" font-family="Arial">0.0030</text>
<rect x="133.64" y="425.74" width="45.45" height="164.26" fill="#5470C6"/>
<rect x="179.09" y="104.13" width="45.45" height="485.87" fill="#91CC75"/>
<rect x="224.55" y="210.73" width="45.45" height="379.27" fill="#FAC858"/>
<text x="188.18" y="624.00" text-anchor="middle" font-size="13" font-family="Arial" transform="rotate(25 188.18,624.00)">Full</text>
<rect x="333.64" y="557.15" width="45.45" height="32.85" fill="#5470C6"/>
<rect x="379.09" y="569.47" width="45.45" height="20.53" fill="#91CC75"/>
<rect x="424.55" y="517.73" width="45.45" height="72.27" fill="#FAC858"/>
<text x="388.18" y="624.00" text-anchor="middle" font-size="13" font-family="Arial" transform="rotate(25 388.18,624.00)">w/o CF</text>
<rect x="533.64" y="425.74" width="45.45" height="164.26" fill="#5470C6"/>
<rect x="579.09" y="90.00" width="45.45" height="500.00" fill="#91CC75"/>
<rect x="624.55" y="198.90" width="45.45" height="391.10" fill="#FAC858"/>
<text x="588.18" y="624.00" text-anchor="middle" font-size="13" font-family="Arial" transform="rotate(25 588.18,624.00)">w/o
Content</text>
<rect x="733.64" y="491.45" width="45.45" height="98.55" fill="#5470C6"/>
<rect x="779.09" y="350.51" width="45.45" height="239.49" fill="#91CC75"/>
<rect x="824.55" y="317.17" width="45.45" height="272.83" fill="#FAC858"/>
<text x="788.18" y="624.00" text-anchor="middle" font-size="13" font-family="Arial" transform="rotate(25 788.18,624.00)">w/o
MMR</text>
<rect x="933.64" y="425.74" width="45.45" height="164.26" fill="#5470C6"/>
<rect x="979.09" y="124.66" width="45.45" height="465.34" fill="#91CC75"/>
<rect x="1024.55" y="320.78" width="45.45" height="269.22" fill="#FAC858"/>
<text x="988.18" y="624.00" text-anchor="middle" font-size="13" font-family="Arial" transform="rotate(25 988.18,624.00)">w/o
Arbiter</text>
<rect x="1133.64" y="425.74" width="45.45" height="164.26" fill="#5470C6"/>
<rect x="1179.09" y="104.13" width="45.45" height="485.87" fill="#91CC75"/>
<rect x="1224.55" y="210.73" width="45.45" height="379.27" fill="#FAC858"/>
<text x="1188.18" y="624.00" text-anchor="middle" font-size="13" font-family="Arial" transform="rotate(25 1188.18,624.00)">w/o
Feedback</text>
<rect x="1020" y="98" width="18" height="10" fill="#5470C6"/>
<text x="1046" y="108" font-size="13" font-family="Arial">Precision@10</text>
<rect x="1020" y="120" width="18" height="10" fill="#91CC75"/>
<text x="1046" y="130" font-size="13" font-family="Arial">Recall@10</text>
<rect x="1020" y="142" width="18" height="10" fill="#FAC858"/>
<text x="1046" y="152" font-size="13" font-family="Arial">NDCG@10</text>
</svg>